<svg width="21" height="20" viewBox="0 0 21 20" fill="none" xmlns="http://www.w3.org/2000/svg">
<g clip-path="url(#clip0_478_450)">
<path d="M4.16211 18.2422C4.19192 18.7182 4.40202 19.165 4.74963 19.4916C5.09725 19.8181 5.55625 19.9999 6.0332 20H15.6348C16.1117 19.9999 16.5707 19.8181 16.9183 19.4916C17.266 19.165 17.476 18.7182 17.5059 18.2422L18.334 5.00001H3.33398L4.16211 18.2422ZM6.90078 11.375L10.3922 7.69298C10.4485 7.63208 10.5169 7.58349 10.5929 7.55026C10.6689 7.51703 10.751 7.49988 10.834 7.49988C10.917 7.49988 10.999 7.51703 11.0751 7.55026C11.1511 7.58349 11.2194 7.63208 11.2758 7.69298L14.7672 11.375C15.1609 11.7899 14.882 12.5 14.325 12.5H12.084V16.875C12.084 17.0408 12.0181 17.1997 11.9009 17.3169C11.7837 17.4342 11.6247 17.5 11.459 17.5H10.209C10.0432 17.5 9.88425 17.4342 9.76704 17.3169C9.64983 17.1997 9.58398 17.0408 9.58398 16.875V12.5H7.34297C6.78594 12.5 6.50703 11.7899 6.90078 11.375ZM18.959 1.25001H14.2715L13.9043 0.519538C13.8265 0.363372 13.7067 0.232008 13.5583 0.140225C13.41 0.0484421 13.2389 -0.00011828 13.0645 6.84872e-06H8.59961C8.42554 -0.000662313 8.2548 0.047717 8.10696 0.139602C7.95911 0.231487 7.84014 0.363161 7.76367 0.519538L7.39648 1.25001H2.70898C2.54322 1.25001 2.38425 1.31585 2.26704 1.43307C2.14983 1.55028 2.08398 1.70925 2.08398 1.87501V3.12501C2.08398 3.29077 2.14983 3.44974 2.26704 3.56695C2.38425 3.68416 2.54322 3.75001 2.70898 3.75001H18.959C19.1247 3.75001 19.2837 3.68416 19.4009 3.56695C19.5181 3.44974 19.584 3.29077 19.584 3.12501V1.87501C19.584 1.70925 19.5181 1.55028 19.4009 1.43307C19.2837 1.31585 19.1247 1.25001 18.959 1.25001Z" fill="#FA3E3E"/>
</g>
<defs>
<clipPath id="clip0_478_450">
<rect width="20" height="20" fill="white" transform="translate(0.833984)"/>
</clipPath>
</defs>
</svg>
