<svg width="21" height="20" viewBox="0 0 21 20" fill="none" xmlns="http://www.w3.org/2000/svg">
<path d="M17.709 18.75H3.95898C2.92383 18.75 2.08398 17.9102 2.08398 16.875V3.125C2.08398 2.08984 2.92383 1.25 3.95898 1.25H17.709C18.7441 1.25 19.584 2.08984 19.584 3.125V16.875C19.584 17.9102 18.7441 18.75 17.709 18.75ZM11.3848 6.94922L6.08398 12.25L5.83789 14.4805C5.80664 14.7773 6.05664 15.0312 6.35742 15L8.58789 14.7539L13.8887 9.45312C13.9785 9.36328 13.9785 9.21484 13.8887 9.12109L11.7207 6.95312C11.623 6.85938 11.4746 6.85938 11.3848 6.94922ZM15.5605 6.44922L14.3848 5.27344C14.0176 4.90625 13.4238 4.90625 13.0605 5.27344L12.1582 6.17578C12.0684 6.26562 12.0684 6.41406 12.1582 6.50781L14.3262 8.67578C14.416 8.76562 14.5645 8.76562 14.6582 8.67578L15.5605 7.77344C15.9238 7.41016 15.9238 6.81641 15.5605 6.44922Z" fill="#FCE850"/>
</svg>
